<svg width="34" height="43" viewBox="0 0 34 43" fill="none" xmlns="http://www.w3.org/2000/svg">
<path d="M28.3953 22.7664C28.4361 19.587 30.1369 16.5787 32.835 14.9134C31.1329 12.473 28.2819 10.9257 25.3157 10.8325C22.1521 10.4992 19.085 12.733 17.4729 12.733C15.8296 12.733 13.3474 10.8656 10.6745 10.9208C7.19058 11.0338 3.94265 13.0224 2.24763 16.0802C-1.39599 22.4132 1.32182 31.7205 4.81211 36.8396C6.55838 39.3463 8.59926 42.1464 11.2697 42.0471C13.8829 41.9383 14.8589 40.3742 18.0132 40.3742C21.1383 40.3742 22.054 42.0471 24.7786 41.9839C27.5827 41.9382 29.3494 39.4661 31.0344 36.9357C32.2891 35.1496 33.2546 33.1755 33.8951 31.0867C30.5998 29.6875 28.3991 26.3583 28.3953 22.7664Z" fill="#090909"/>
<path d="M23.2489 7.46595C24.7778 5.6234 25.531 3.2551 25.3486 0.864014C23.0128 1.1103 20.8552 2.23103 19.3056 4.0029C17.7903 5.7341 17.0018 8.06072 17.1509 10.3604C19.4875 10.3846 21.7847 9.29422 23.2489 7.46595Z" fill="#090909"/>
</svg>
