<svg width="35" height="40" viewBox="0 0 35 40" fill="none" xmlns="http://www.w3.org/2000/svg">
<g filter="url(#filter0_ii_18_465)">
<path d="M0.92312 1.05542C0.486862 1.51897 0.229003 2.23837 0.229003 3.16998V36.455C0.229003 37.3881 0.486862 38.106 0.92312 38.5695L1.03406 38.6779L19.6073 20.0322V19.8125V19.5928L1.03406 0.945557L0.92312 1.05542Z" fill="url(#paint0_linear_18_465)"/>
<path d="M25.797 26.2491L19.6069 20.0319V19.8122V19.5924L25.7985 13.3767L25.9379 13.4565L33.2734 17.6404C35.3677 18.8354 35.3677 20.7904 33.2734 21.9869L25.9379 26.1709L25.797 26.2491Z" fill="url(#paint1_linear_18_465)"/>
<g filter="url(#filter1_i_18_465)">
<path d="M25.9382 26.1692L19.6057 19.812L0.923097 38.5691C1.61271 39.3035 2.75358 39.3938 4.03837 38.6624L25.9382 26.1692Z" fill="url(#paint2_linear_18_465)"/>
</g>
<path d="M25.9382 13.4552L4.03837 0.963564C2.75358 0.230619 1.61271 0.322426 0.923097 1.05688L19.6072 19.8139L25.9382 13.4552Z" fill="url(#paint3_linear_18_465)"/>
</g>
<defs>
<filter id="filter0_ii_18_465" x="0.229004" y="0.457764" width="34.6151" height="38.7097" filterUnits="userSpaceOnUse" color-interpolation-filters="sRGB">
<feFlood flood-opacity="0" result="BackgroundImageFix"/>
<feBlend mode="normal" in="SourceGraphic" in2="BackgroundImageFix" result="shape"/>
<feColorMatrix in="SourceAlpha" type="matrix" values="0 0 0 0 0 0 0 0 0 0 0 0 0 0 0 0 0 0 127 0" result="hardAlpha"/>
<feOffset dy="-0.225753"/>
<feComposite in2="hardAlpha" operator="arithmetic" k2="-1" k3="1"/>
<feColorMatrix type="matrix" values="0 0 0 0 0 0 0 0 0 0 0 0 0 0 0 0 0 0 0.12 0"/>
<feBlend mode="normal" in2="shape" result="effect1_innerShadow_18_465"/>
<feColorMatrix in="SourceAlpha" type="matrix" values="0 0 0 0 0 0 0 0 0 0 0 0 0 0 0 0 0 0 127 0" result="hardAlpha"/>
<feOffset dy="0.225753"/>
<feComposite in2="hardAlpha" operator="arithmetic" k2="-1" k3="1"/>
<feColorMatrix type="matrix" values="0 0 0 0 1 0 0 0 0 1 0 0 0 0 1 0 0 0 0.25 0"/>
<feBlend mode="normal" in2="effect1_innerShadow_18_465" result="effect2_innerShadow_18_465"/>
</filter>
<filter id="filter1_i_18_465" x="0.923096" y="19.812" width="25.0151" height="19.3555" filterUnits="userSpaceOnUse" color-interpolation-filters="sRGB">
<feFlood flood-opacity="0" result="BackgroundImageFix"/>
<feBlend mode="normal" in="SourceGraphic" in2="BackgroundImageFix" result="shape"/>
<feColorMatrix in="SourceAlpha" type="matrix" values="0 0 0 0 0 0 0 0 0 0 0 0 0 0 0 0 0 0 127 0" result="hardAlpha"/>
<feOffset dy="-0.225753"/>
<feComposite in2="hardAlpha" operator="arithmetic" k2="-1" k3="1"/>
<feColorMatrix type="matrix" values="0 0 0 0 0 0 0 0 0 0 0 0 0 0 0 0 0 0 0.08 0"/>
<feBlend mode="normal" in2="shape" result="effect1_innerShadow_18_465"/>
</filter>
<linearGradient id="paint0_linear_18_465" x1="17.9609" y1="2.8178" x2="-7.29618" y2="27.9766" gradientUnits="userSpaceOnUse">
<stop stop-color="#00A0FF"/>
<stop offset="0.0066" stop-color="#00A1FF"/>
<stop offset="0.2601" stop-color="#00BEFF"/>
<stop offset="0.5122" stop-color="#00D2FF"/>
<stop offset="0.7604" stop-color="#00DFFF"/>
<stop offset="1" stop-color="#00E3FF"/>
</linearGradient>
<linearGradient id="paint1_linear_18_465" x1="35.9996" y1="19.8122" x2="-0.274136" y2="19.8122" gradientUnits="userSpaceOnUse">
<stop stop-color="#FFE000"/>
<stop offset="0.4087" stop-color="#FFBD00"/>
<stop offset="0.7754" stop-color="#FFA500"/>
<stop offset="1" stop-color="#FF9C00"/>
</linearGradient>
<linearGradient id="paint2_linear_18_465" x1="22.4993" y1="23.2644" x2="-11.7525" y2="57.3829" gradientUnits="userSpaceOnUse">
<stop stop-color="#FF3A44"/>
<stop offset="1" stop-color="#C31162"/>
</linearGradient>
<linearGradient id="paint3_linear_18_465" x1="-3.78219" y1="-10.0234" x2="11.5122" y2="5.2115" gradientUnits="userSpaceOnUse">
<stop stop-color="#32A071"/>
<stop offset="0.0685" stop-color="#2DA771"/>
<stop offset="0.4762" stop-color="#15CF74"/>
<stop offset="0.8009" stop-color="#06E775"/>
<stop offset="1" stop-color="#00F076"/>
</linearGradient>
</defs>
</svg>
